<svg width="20" height="23" viewBox="0 0 20 23" fill="none" xmlns="http://www.w3.org/2000/svg">
<path d="M1.66667 23C1.2037 23 0.810185 22.8323 0.486111 22.4969C0.162037 22.1615 0 21.7542 0 21.275V4.025C0 3.54583 0.162037 3.13854 0.486111 2.80312C0.810185 2.46771 1.2037 2.3 1.66667 2.3H7.36111C7.4537 1.62917 7.75 1.07812 8.25 0.646875C8.75 0.215625 9.33333 0 10 0C10.6667 0 11.25 0.215625 11.75 0.646875C12.25 1.07812 12.5463 1.62917 12.6389 2.3H18.3333C18.7963 2.3 19.1898 2.46771 19.5139 2.80312C19.838 3.13854 20 3.54583 20 4.025V21.275C20 21.7542 19.838 22.1615 19.5139 22.4969C19.1898 22.8323 18.7963 23 18.3333 23H1.66667ZM1.66667 21.275H18.3333V4.025H1.66667V21.275ZM4.44444 18.4H12.0278V16.675H4.44444V18.4ZM4.44444 13.5125H15.5556V11.7875H4.44444V13.5125ZM4.44444 8.625H15.5556V6.9H4.44444V8.625ZM10 3.53625C10.2593 3.53625 10.4861 3.43562 10.6806 3.23437C10.875 3.03312 10.9722 2.79833 10.9722 2.53C10.9722 2.26167 10.875 2.02688 10.6806 1.82563C10.4861 1.62438 10.2593 1.52375 10 1.52375C9.74074 1.52375 9.51389 1.62438 9.31944 1.82563C9.125 2.02688 9.02778 2.26167 9.02778 2.53C9.02778 2.79833 9.125 3.03312 9.31944 3.23437C9.51389 3.43562 9.74074 3.53625 10 3.53625Z" fill="white"/>
</svg>
