<svg width="34" height="27" viewBox="0 0 34 27" fill="none" xmlns="http://www.w3.org/2000/svg">
<path d="M29.1429 0H4.85714C3.56938 0.00130279 2.33476 0.475827 1.42418 1.31946C0.513591 2.16309 0.00140618 3.30693 0 4.5V22.5C0.00140618 23.6931 0.513591 24.8369 1.42418 25.6805C2.33476 26.5242 3.56938 26.9987 4.85714 27H29.1429C30.4306 26.9987 31.6652 26.5242 32.5758 25.6805C33.4864 24.8369 33.9986 23.6931 34 22.5V4.5C33.9986 3.30693 33.4864 2.16309 32.5758 1.31946C31.6652 0.475827 30.4306 0.00130279 29.1429 0ZM23.0714 4.5C23.7919 4.5 24.4962 4.69794 25.0953 5.06879C25.6944 5.43964 26.1613 5.96674 26.437 6.58344C26.7127 7.20014 26.7849 7.87874 26.6443 8.53343C26.5037 9.18812 26.1568 9.78948 25.6473 10.2615C25.1379 10.7335 24.4888 11.0549 23.7821 11.1852C23.0755 11.3154 22.343 11.2485 21.6774 10.9931C21.0117 10.7376 20.4428 10.3051 20.0425 9.75005C19.6422 9.19503 19.4286 8.54251 19.4286 7.875C19.4296 6.98018 19.8137 6.12228 20.4966 5.48954C21.1796 4.85681 22.1056 4.50093 23.0714 4.5ZM4.85714 24.75C4.21305 24.75 3.59533 24.5129 3.13988 24.091C2.68444 23.669 2.42857 23.0967 2.42857 22.5V17.7448L9.62625 11.8174C10.3207 11.2468 11.2239 10.943 12.1517 10.9678C13.0795 10.9926 13.9622 11.3442 14.62 11.951L19.5492 16.508L10.6531 24.75H4.85714ZM31.5714 22.5C31.5714 23.0967 31.3156 23.669 30.8601 24.091C30.4047 24.5129 29.787 24.75 29.1429 24.75H14.088L23.3029 16.2127C23.9553 15.6986 24.7833 15.4154 25.6397 15.4134C26.4961 15.4113 27.3256 15.6905 27.9809 16.2014L31.5714 18.9731V22.5Z" fill="white"/>
</svg>
