<svg width="29" height="29" viewBox="0 0 29 29" fill="none" xmlns="http://www.w3.org/2000/svg">
<path d="M14.5 0C6.4815 0 0 6.4815 0 14.5C0 22.5185 6.4815 29 14.5 29C22.5185 29 29 22.5185 29 14.5C29 6.4815 22.5185 0 14.5 0ZM14.5 26.1C8.1055 26.1 2.9 20.8945 2.9 14.5C2.9 8.1055 8.1055 2.9 14.5 2.9C20.8945 2.9 26.1 8.1055 26.1 14.5C26.1 20.8945 20.8945 26.1 14.5 26.1ZM19.7055 7.25L14.5 12.4555L9.2945 7.25L7.25 9.2945L12.4555 14.5L7.25 19.7055L9.2945 21.75L14.5 16.5445L19.7055 21.75L21.75 19.7055L16.5445 14.5L21.75 9.2945L19.7055 7.25Z" fill="#FF0000"/>
</svg>
