<svg width="26" height="26" viewBox="0 0 26 26" fill="none" xmlns="http://www.w3.org/2000/svg">
<path d="M9.69308 1H2.1145C1.49898 1 1 1.49898 1 2.1145V9.69308C1 10.3086 1.49898 10.8076 2.1145 10.8076H9.69308C10.3086 10.8076 10.8076 10.3086 10.8076 9.69308V2.1145C10.8076 1.49898 10.3086 1 9.69308 1Z" stroke="white" stroke-width="2" stroke-linecap="round" stroke-linejoin="round"/>
<path d="M23.0672 1H15.4886C14.8731 1 14.3741 1.49898 14.3741 2.1145V9.69308C14.3741 10.3086 14.8731 10.8076 15.4886 10.8076H23.0672C23.6827 10.8076 24.1817 10.3086 24.1817 9.69308V2.1145C24.1817 1.49898 23.6827 1 23.0672 1Z" stroke="white" stroke-width="2" stroke-linecap="round" stroke-linejoin="round"/>
<path d="M9.69308 14.374H2.1145C1.49898 14.374 1 14.873 1 15.4885V23.0671C1 23.6826 1.49898 24.1816 2.1145 24.1816H9.69308C10.3086 24.1816 10.8076 23.6826 10.8076 23.0671V15.4885C10.8076 14.873 10.3086 14.374 9.69308 14.374Z" stroke="white" stroke-width="2" stroke-linecap="round" stroke-linejoin="round"/>
<path d="M23.0672 14.374H15.4886C14.8731 14.374 14.3741 14.873 14.3741 15.4885V23.0671C14.3741 23.6826 14.8731 24.1816 15.4886 24.1816H23.0672C23.6827 24.1816 24.1817 23.6826 24.1817 23.0671V15.4885C24.1817 14.873 23.6827 14.374 23.0672 14.374Z" stroke="white" stroke-width="2" stroke-linecap="round" stroke-linejoin="round"/>
</svg>
