<svg width="25" height="17" viewBox="0 0 25 17" fill="none" xmlns="http://www.w3.org/2000/svg">
<path d="M25 8.5L19.1319 15.7554C18.831 16.1196 18.4722 16.4182 18.0556 16.6509C17.6389 16.8836 17.1759 17 16.6667 17H2.08333C1.50463 17 1.01273 16.8229 0.607639 16.4688C0.202546 16.1146 0 15.6845 0 15.1786V1.82143C0 1.31548 0.202546 0.885417 0.607639 0.53125C1.01273 0.177083 1.50463 0 2.08333 0H16.6667C17.1759 0 17.6389 0.116369 18.0556 0.349107C18.4722 0.581845 18.831 0.880357 19.1319 1.24464L25 8.5ZM22.3958 8.5L17.0486 1.82143H2.08333V15.1786H17.0486L22.3958 8.5ZM2.08333 8.5V15.1786V1.82143V8.5Z" fill="white"/>
</svg>
