<svg width="33" height="23" viewBox="0 0 33 23" fill="none"
  xmlns="http://www.w3.org/2000/svg">
  <path d="M8.72717 2.28787H31.9087" stroke="white" stroke-width="2" stroke-linecap="round" stroke-linejoin="round"/>
  <path d="M8.72717 11.3029H31.9087" stroke="white" stroke-width="2" stroke-linecap="round" stroke-linejoin="round"/>
  <path d="M8.72717 20.3179H31.9087" stroke="white" stroke-width="2" stroke-linecap="round" stroke-linejoin="round"/>
  <path d="M2.28786 3.57573C2.99913 3.57573 3.57573 2.99913 3.57573 2.28786C3.57573 1.5766 2.99913 1 2.28786 1C1.5766 1 1 1.5766 1 2.28786C1 2.99913 1.5766 3.57573 2.28786 3.57573Z" stroke="white" stroke-width="2" stroke-linecap="round" stroke-linejoin="round"/>
  <path d="M2.28786 12.5908C2.99913 12.5908 3.57573 12.0142 3.57573 11.3029C3.57573 10.5917 2.99913 10.0151 2.28786 10.0151C1.5766 10.0151 1 10.5917 1 11.3029C1 12.0142 1.5766 12.5908 2.28786 12.5908Z" stroke="white" stroke-width="2" stroke-linecap="round" stroke-linejoin="round"/>
  <path d="M2.28786 21.6058C2.99913 21.6058 3.57573 21.0292 3.57573 20.3179C3.57573 19.6067 2.99913 19.0301 2.28786 19.0301C1.5766 19.0301 1 19.6067 1 20.3179C1 21.0292 1.5766 21.6058 2.28786 21.6058Z" stroke="white" stroke-width="2" stroke-linecap="round" stroke-linejoin="round"/>
</svg>
