<svg width="32" height="32" viewBox="0 0 32 32" fill="none" xmlns="http://www.w3.org/2000/svg">
<circle cx="16" cy="16" r="15.8" fill="white" stroke="#E3E3E3" stroke-width="0.4"/>
<path d="M15.9999 18.736L19.5039 15.208H12.4719L15.9999 18.736ZM15.9999 25.6C14.6879 25.6 13.4479 25.348 12.2799 24.844C11.1119 24.34 10.0919 23.652 9.2199 22.78C8.3479 21.908 7.6599 20.888 7.1559 19.72C6.6519 18.552 6.3999 17.312 6.3999 16C6.3999 14.672 6.6519 13.424 7.1559 12.256C7.6599 11.088 8.3479 10.072 9.2199 9.20801C10.0919 8.34401 11.1119 7.66001 12.2799 7.15601C13.4479 6.65201 14.6879 6.40001 15.9999 6.40001C17.3279 6.40001 18.5759 6.65201 19.7439 7.15601C20.9119 7.66001 21.9279 8.34401 22.7919 9.20801C23.6559 10.072 24.3399 11.088 24.8439 12.256C25.3479 13.424 25.5999 14.672 25.5999 16C25.5999 17.312 25.3479 18.552 24.8439 19.72C24.3399 20.888 23.6559 21.908 22.7919 22.78C21.9279 23.652 20.9119 24.34 19.7439 24.844C18.5759 25.348 17.3279 25.6 15.9999 25.6ZM15.9999 24.16C18.2719 24.16 20.1999 23.364 21.7839 21.772C23.3679 20.18 24.1599 18.256 24.1599 16C24.1599 13.728 23.3679 11.8 21.7839 10.216C20.1999 8.63201 18.2719 7.84001 15.9999 7.84001C13.7439 7.84001 11.8199 8.63201 10.2279 10.216C8.6359 11.8 7.8399 13.728 7.8399 16C7.8399 18.256 8.6359 20.18 10.2279 21.772C11.8199 23.364 13.7439 24.16 15.9999 24.16Z" fill="#3E3E3E"/>
</svg>
