<svg width="166" height="38" viewBox="0 0 166 38" fill="none" xmlns="http://www.w3.org/2000/svg">
<path d="M2.81818 31V7.72727H5.63636V28.5H16.4545V31H2.81818ZM20.4545 31V13.5455H23.1364V31H20.4545ZM21.8182 10.6364C21.2955 10.6364 20.8447 10.4583 20.4659 10.1023C20.0947 9.74621 19.9091 9.31818 19.9091 8.81818C19.9091 8.31818 20.0947 7.89015 20.4659 7.53409C20.8447 7.17803 21.2955 7 21.8182 7C22.3409 7 22.7879 7.17803 23.1591 7.53409C23.5379 7.89015 23.7273 8.31818 23.7273 8.81818C23.7273 9.31818 23.5379 9.74621 23.1591 10.1023C22.7879 10.4583 22.3409 10.6364 21.8182 10.6364ZM40.4119 17.4545L38.0028 18.1364C37.8513 17.7348 37.6278 17.3447 37.3324 16.9659C37.0445 16.5795 36.6506 16.2614 36.1506 16.0114C35.6506 15.7614 35.0104 15.6364 34.2301 15.6364C33.1619 15.6364 32.2718 15.8826 31.5597 16.375C30.8551 16.8598 30.5028 17.4773 30.5028 18.2273C30.5028 18.8939 30.7453 19.4205 31.2301 19.8068C31.715 20.1932 32.4725 20.5152 33.5028 20.7727L36.0938 21.4091C37.6544 21.7879 38.8172 22.3674 39.5824 23.1477C40.3475 23.9205 40.7301 24.9167 40.7301 26.1364C40.7301 27.1364 40.4422 28.0303 39.8665 28.8182C39.2983 29.6061 38.5028 30.2273 37.4801 30.6818C36.4574 31.1364 35.268 31.3636 33.9119 31.3636C32.1316 31.3636 30.6581 30.9773 29.4915 30.2045C28.3248 29.4318 27.5862 28.303 27.2756 26.8182L29.821 26.1818C30.0634 27.1212 30.5218 27.8258 31.196 28.2955C31.8778 28.7652 32.768 29 33.8665 29C35.1165 29 36.1089 28.7348 36.8438 28.2045C37.5862 27.6667 37.9574 27.0227 37.9574 26.2727C37.9574 25.6667 37.7453 25.1591 37.321 24.75C36.8968 24.3333 36.2453 24.0227 35.3665 23.8182L32.4574 23.1364C30.8589 22.7576 29.6847 22.1705 28.9347 21.375C28.1922 20.572 27.821 19.5682 27.821 18.3636C27.821 17.3788 28.0975 16.5076 28.6506 15.75C29.2112 14.9924 29.9725 14.3977 30.9347 13.9659C31.9044 13.5341 33.0028 13.3182 34.2301 13.3182C35.9574 13.3182 37.3134 13.697 38.2983 14.4545C39.2907 15.2121 39.9953 16.2121 40.4119 17.4545ZM52.358 13.5455V15.8182H43.3125V13.5455H52.358ZM45.9489 9.36364H48.6307V26C48.6307 26.7576 48.7405 27.3258 48.9602 27.7045C49.1875 28.0758 49.4754 28.3258 49.8239 28.4545C50.1799 28.5758 50.5549 28.6364 50.9489 28.6364C51.2443 28.6364 51.4867 28.6212 51.6761 28.5909C51.8655 28.553 52.017 28.5227 52.1307 28.5L52.6761 30.9091C52.4943 30.9773 52.2405 31.0455 51.9148 31.1136C51.589 31.1894 51.1761 31.2273 50.6761 31.2273C49.9186 31.2273 49.1761 31.0644 48.4489 30.7386C47.7292 30.4129 47.1307 29.9167 46.6534 29.25C46.1837 28.5833 45.9489 27.7424 45.9489 26.7273V9.36364ZM63.2955 31.3636C61.7197 31.3636 60.3371 30.9886 59.1477 30.2386C57.9659 29.4886 57.0417 28.4394 56.375 27.0909C55.7159 25.7424 55.3864 24.1667 55.3864 22.3636C55.3864 20.5455 55.7159 18.9583 56.375 17.6023C57.0417 16.2462 57.9659 15.1932 59.1477 14.4432C60.3371 13.6932 61.7197 13.3182 63.2955 13.3182C64.8712 13.3182 66.25 13.6932 67.4318 14.4432C68.6212 15.1932 69.5455 16.2462 70.2045 17.6023C70.8712 18.9583 71.2045 20.5455 71.2045 22.3636C71.2045 24.1667 70.8712 25.7424 70.2045 27.0909C69.5455 28.4394 68.6212 29.4886 67.4318 30.2386C66.25 30.9886 64.8712 31.3636 63.2955 31.3636ZM63.2955 28.9545C64.4924 28.9545 65.4773 28.6477 66.25 28.0341C67.0227 27.4205 67.5947 26.6136 67.9659 25.6136C68.3371 24.6136 68.5227 23.5303 68.5227 22.3636C68.5227 21.197 68.3371 20.1098 67.9659 19.1023C67.5947 18.0947 67.0227 17.2803 66.25 16.6591C65.4773 16.0379 64.4924 15.7273 63.2955 15.7273C62.0985 15.7273 61.1136 16.0379 60.3409 16.6591C59.5682 17.2803 58.9962 18.0947 58.625 19.1023C58.2538 20.1098 58.0682 21.197 58.0682 22.3636C58.0682 23.5303 58.2538 24.6136 58.625 25.6136C58.9962 26.6136 59.5682 27.4205 60.3409 28.0341C61.1136 28.6477 62.0985 28.9545 63.2955 28.9545ZM77.9801 7.72727V31H75.2983V7.72727H77.9801ZM89.983 31.3636C88.4072 31.3636 87.0246 30.9886 85.8352 30.2386C84.6534 29.4886 83.7292 28.4394 83.0625 27.0909C82.4034 25.7424 82.0739 24.1667 82.0739 22.3636C82.0739 20.5455 82.4034 18.9583 83.0625 17.6023C83.7292 16.2462 84.6534 15.1932 85.8352 14.4432C87.0246 13.6932 88.4072 13.3182 89.983 13.3182C91.5587 13.3182 92.9375 13.6932 94.1193 14.4432C95.3087 15.1932 96.233 16.2462 96.892 17.6023C97.5587 18.9583 97.892 20.5455 97.892 22.3636C97.892 24.1667 97.5587 25.7424 96.892 27.0909C96.233 28.4394 95.3087 29.4886 94.1193 30.2386C92.9375 30.9886 91.5587 31.3636 89.983 31.3636ZM89.983 28.9545C91.1799 28.9545 92.1648 28.6477 92.9375 28.0341C93.7102 27.4205 94.2822 26.6136 94.6534 25.6136C95.0246 24.6136 95.2102 23.5303 95.2102 22.3636C95.2102 21.197 95.0246 20.1098 94.6534 19.1023C94.2822 18.0947 93.7102 17.2803 92.9375 16.6591C92.1648 16.0379 91.1799 15.7273 89.983 15.7273C88.786 15.7273 87.8011 16.0379 87.0284 16.6591C86.2557 17.2803 85.6837 18.0947 85.3125 19.1023C84.9413 20.1098 84.7557 21.197 84.7557 22.3636C84.7557 23.5303 84.9413 24.6136 85.3125 25.6136C85.6837 26.6136 86.2557 27.4205 87.0284 28.0341C87.8011 28.6477 88.786 28.9545 89.983 28.9545ZM109.031 37.9091C107.736 37.9091 106.622 37.7424 105.69 37.4091C104.759 37.0833 103.982 36.6515 103.361 36.1136C102.747 35.5833 102.259 35.0152 101.895 34.4091L104.031 32.9091C104.274 33.2273 104.58 33.5909 104.952 34C105.323 34.4167 105.83 34.7765 106.474 35.0795C107.126 35.3902 107.978 35.5455 109.031 35.5455C110.44 35.5455 111.603 35.2045 112.52 34.5227C113.437 33.8409 113.895 32.7727 113.895 31.3182V27.7727H113.668C113.471 28.0909 113.19 28.4848 112.827 28.9545C112.471 29.4167 111.955 29.8295 111.281 30.1932C110.615 30.5492 109.713 30.7273 108.577 30.7273C107.168 30.7273 105.902 30.3939 104.781 29.7273C103.668 29.0606 102.785 28.0909 102.134 26.8182C101.49 25.5455 101.168 24 101.168 22.1818C101.168 20.3939 101.482 18.8371 102.111 17.5114C102.74 16.178 103.615 15.1477 104.736 14.4205C105.857 13.6856 107.152 13.3182 108.622 13.3182C109.759 13.3182 110.66 13.5076 111.327 13.8864C112.001 14.2576 112.516 14.6818 112.872 15.1591C113.236 15.6288 113.516 16.0152 113.713 16.3182H113.986V13.5455H116.577V31.5C116.577 33 116.236 34.2197 115.554 35.1591C114.88 36.1061 113.971 36.7992 112.827 37.2386C111.69 37.6856 110.425 37.9091 109.031 37.9091ZM108.94 28.3182C110.016 28.3182 110.925 28.072 111.668 27.5795C112.41 27.0871 112.974 26.3788 113.361 25.4545C113.747 24.5303 113.94 23.4242 113.94 22.1364C113.94 20.8788 113.751 19.7689 113.372 18.8068C112.993 17.8447 112.433 17.0909 111.69 16.5455C110.948 16 110.031 15.7273 108.94 15.7273C107.804 15.7273 106.857 16.0152 106.099 16.5909C105.349 17.1667 104.785 17.9394 104.406 18.9091C104.035 19.8788 103.849 20.9545 103.849 22.1364C103.849 23.3485 104.039 24.4205 104.418 25.3523C104.804 26.2765 105.372 27.0038 106.122 27.5341C106.88 28.0568 107.819 28.3182 108.94 28.3182ZM123.213 37.5455C122.759 37.5455 122.353 37.5076 121.997 37.4318C121.641 37.3636 121.395 37.2955 121.259 37.2273L121.94 34.8636C122.592 35.0303 123.168 35.0909 123.668 35.0455C124.168 35 124.611 34.7765 124.997 34.375C125.391 33.9811 125.751 33.3409 126.077 32.4545L126.577 31.0909L120.122 13.5455H123.031L127.849 27.4545H128.031L132.849 13.5455H135.759L128.349 33.5455C128.016 34.447 127.603 35.1932 127.111 35.7841C126.618 36.3826 126.046 36.8258 125.395 37.1136C124.751 37.4015 124.024 37.5455 123.213 37.5455Z" fill="white"/>
<path d="M141 30.9998H146.208L161.567 15.6408L156.359 10.4332L141 25.7922V30.9998ZM143.777 26.9448L156.359 14.3632L157.637 15.6408L145.055 28.2224H143.777V26.9448Z" fill="white"/>
<path d="M162.344 6.40619C161.802 5.8646 160.928 5.8646 160.386 6.40619L157.845 8.94751L163.052 14.1551L165.594 11.6138C166.135 11.0722 166.135 10.1973 165.594 9.65574L162.344 6.40619Z" fill="white"/>
</svg>
